<?xml version="1.0" standalone="no"?><!DOCTYPE svg PUBLIC "-//W3C//DTD SVG 1.1//EN" "http://www.w3.org/Graphics/SVG/1.1/DTD/svg11.dtd"><svg t="1623051772954" class="icon" viewBox="0 0 1024 1024" version="1.1" xmlns="http://www.w3.org/2000/svg" p-id="2464" xmlns:xlink="http://www.w3.org/1999/xlink" width="200" height="200"><defs><style type="text/css"></style></defs><path d="M609.3 600.417s23.729-35.393 48.914-104.855c25.187-69.329 28.766-107.638 28.766-107.638l-199.238-1.725v-68.002l241.392-1.724v-48.12H487.742V158.727H369.497v109.628H144.276v48.119l225.09-1.723v73.04h-180.55v38.31H560.65s-4.11 31.02-18.293 69.33c-14.184 38.575-28.9 72.246-28.9 72.246s-174.714-60.978-266.843-60.978c-91.997 0-203.879 36.985-214.75 144.093-10.736 107.241 52.097 165.304 140.78 186.778 88.684 21.476 170.473-0.264 241.792-35.129 71.316-34.862 141.177-114.134 141.177-114.134l369.578 179.487s23.198-34.996 39.901-67.739c16.704-32.477 30.623-69.726 30.623-69.726L609.3 600.417zM227.79 778.846c-130.44 0-157.748-64.027-157.748-110.026s27.175-96.106 137.997-103.397c110.953-7.159 260.745 78.608 260.745 78.608S358.23 778.846 227.79 778.846z" p-id="2465" fill="#ffffff"></path></svg>