<?xml version="1.0" standalone="no"?><!DOCTYPE svg PUBLIC "-//W3C//DTD SVG 1.1//EN" "http://www.w3.org/Graphics/SVG/1.1/DTD/svg11.dtd"><svg t="1623052207009" class="icon" viewBox="0 0 1198 1024" version="1.1" xmlns="http://www.w3.org/2000/svg" p-id="9293" xmlns:xlink="http://www.w3.org/1999/xlink" width="233.984375" height="200"><defs><style type="text/css"></style></defs><path d="M920.356275 58.040486H725.506073c-12.437247 0-60.11336 62.186235-111.935223 62.186235s-114.008097-62.186235-124.372469-62.186235h-228.016195c-60.11336 0-60.11336 41.45749-60.11336 91.206478v688.194332c0 49.748988 49.748988 91.206478 107.789474 91.206477h590.76923c60.11336 0 107.789474-41.45749 107.789474-91.206477V151.319838c0-51.821862-26.947368-93.279352-87.060729-93.279352z m51.821863 735.870445c0 47.676113-37.311741 87.060729-91.206478 87.060729H354.461538c-55.967611 0-114.008097-43.530364-114.008097-91.206478v-642.591093c0-47.676113 12.437247-45.603239 68.404859-45.603239h134.736842c10.364372 0 70.477733 68.404858 161.68421 68.404859s149.246964-68.404858 159.611336-68.404859h136.809717c55.967611 0 68.404858 16.582996 68.404858 64.25911v628.080971z" p-id="9294" fill="#ffffff"></path><path d="M613.57085 406.283401v35.238866H684.048583s26.947368 0 26.947368 26.947369c0 10.364372-18.65587 18.65587-18.65587 18.65587h-78.769231v45.603239c0 10.364372-16.582996 18.65587-26.947368 18.65587-8.291498 0-18.65587-4.145749-18.655871-18.65587v-45.603239H497.489879s-26.947368 0-26.947369-26.947368c0-18.65587 18.65587-18.65587 18.655871-18.655871h78.76923v-35.238866H497.489879s-35.238866 0-35.238867-26.947369S497.489879 352.388664 497.489879 352.388664h62.186234l-62.186234-58.040486c-6.218623-6.218623-12.437247-26.947368-4.145749-35.238866 8.291498-8.291498 29.020243-6.218623 35.238866 0l66.331984 66.331984 60.11336-70.477733s18.65587-8.291498 26.947369 0c14.510121 12.437247 0 35.238866 0 35.238866l-62.186235 62.186235h62.186235s43.530364 0 43.530364 26.947368-35.238866 26.947368-35.238867 26.947369h-76.696356zM744.161943 657.101215H427.012146c-10.364372 0-20.728745-10.364372-20.728745-20.728745v-8.291498c0-12.437247 8.291498-20.728745 20.728745-20.728745h317.149797c10.364372 0 20.728745 10.364372 20.728745 20.728745v8.291498c0 12.437247-10.364372 20.728745-20.728745 20.728745M744.161943 769.036437H427.012146c-10.364372 0-20.728745-10.364372-20.728745-20.728745v-8.291498c0-12.437247 8.291498-20.728745 20.728745-20.728745h317.149797c10.364372 0 20.728745 10.364372 20.728745 20.728745v8.291498c0 12.437247-10.364372 20.728745-20.728745 20.728745" p-id="9295" fill="#ffffff"></path></svg>