<?xml version="1.0" standalone="no"?><!DOCTYPE svg PUBLIC "-//W3C//DTD SVG 1.1//EN" "http://www.w3.org/Graphics/SVG/1.1/DTD/svg11.dtd"><svg t="1623051449451" class="icon" viewBox="0 0 1024 1024" version="1.1" xmlns="http://www.w3.org/2000/svg" p-id="1247" xmlns:xlink="http://www.w3.org/1999/xlink" width="200" height="200"><defs><style type="text/css"></style></defs><path d="M688.57 143.74h-544a32 32 0 0 0-32 32v704a32 32 0 0 0 32 32h544a32 32 0 0 0 32-32v-704a32 32 0 0 0-32-32z m-24 712h-496v-656h496z" p-id="1248" fill="#8a8a8a"></path><path d="M355.5 487.74h-50.93a16 16 0 0 0-16 16v24a16 16 0 0 0 16 16h80v48h-80a16 16 0 0 0-16 16v24a16 16 0 0 0 16 16h80v64a16 16 0 0 0 16 16h32a16 16 0 0 0 16-16v-64h80a16 16 0 0 0 16-16v-24a16 16 0 0 0-16-16h-80v-48h80a16 16 0 0 0 16-16v-24a16 16 0 0 0-16-16h-50.93l74-140.37a8 8 0 0 0-7.38-11.63H493.6a16.63 16.63 0 0 0-14.75 8.74l-62.28 118.1-62.28-118.11a16.63 16.63 0 0 0-14.75-8.74h-50.68a8 8 0 0 0-7.38 11.63zM880.57 223.74h-96a8 8 0 0 0-8 8v40a8 8 0 0 0 8 8h72v576h-72a8 8 0 0 0-8 8v40a8 8 0 0 0 8 8h96a32 32 0 0 0 32-32v-624a32 32 0 0 0-32-32z" p-id="1249" fill="#8a8a8a"></path></svg>