<?xml version="1.0" standalone="no"?><!DOCTYPE svg PUBLIC "-//W3C//DTD SVG 1.1//EN" "http://www.w3.org/Graphics/SVG/1.1/DTD/svg11.dtd"><svg t="1623052533111" class="icon" viewBox="0 0 2372 1024" version="1.1" xmlns="http://www.w3.org/2000/svg" p-id="10975" xmlns:xlink="http://www.w3.org/1999/xlink" width="463.28125" height="200"><defs><style type="text/css"></style></defs><path d="M2030.921473 921.64744c-40.917304-10.199676-59.774844-17.078527-59.774843-21.348158 0-2.609219 13.639101-46.135742 13.639101-46.135743l13.639101 6.878852c47.796155 24.787584 128.800556 23.008571 168.057447-2.60922 18.738939-12.09729 34.98726-35.580264 42.696317-59.30044 5.930044-20.280751 11.978689-95.71091 6.878851-95.71091-0.830206 0-10.199676 9.013667-20.517952 19.924948-57.99583 63.214269-170.666667 56.216817-218.462821-13.757703-23.838777-35.224461-29.887422-57.284225-29.887422-116.584665 0-44.238128 0.830206-56.454019 7.709057-79.225388 11.148483-33.801251 34.98726-69.855918 58.826037-88.120454 34.98726-25.973593 92.98309-36.41047 134.018994-23.838777 20.517952 6.285847 46.965949 24.431781 57.165625 39.731295 4.269632 6.167246 8.539263 11.148483 10.199675 11.148483s2.609219-10.911281 2.60922-24.313181v-24.194579h56.335418v178.494325c0 166.159833-0.830206 180.629141-7.709057 208.263145-19.569145 78.395182-52.065786 112.552235-124.530925 128.800556-37.477878 9.48807-80.174195 9.48807-110.891823 1.897614z m108.401205-205.416724c25.61779-7.471855 52.895993-32.496641 66.535094-60.960853 10.199676-20.16215 10.199676-23.364373 10.199675-77.446374 0-51.591383-0.830206-57.99583-8.539263-74.718555-18.738939-38.426685-65.704888-65.230484-104.961779-59.774844-67.3653 9.48807-106.622191 71.39773-100.692147 158.806579 3.439426 50.405374 24.787584 89.306463 56.335418 105.673384 30.717628 15.773917 49.575168 17.671531 81.123002 8.420663zM93.931897 791.779476l3.083623-697.96618 5.574241 2.490619 180.154737 55.979615 1.423211 470.726894-175.647904 155.367153-2.609219 5.692842L553.866111 550.070883l-129.156359-65.586287-74.718554-169.362057 413.205466 124.293722V642.816771L283.811906 924.138059 93.931897 791.779476z m1056.37804-27.041c-28.108409-7.116053-54.556405-23.838777-65.704887-41.273107-4.269632-6.878851-9.36947-12.571693-11.148483-12.571693s-3.439426 10.911281-3.439425 24.313181v24.31318h-54.556405l0.830206-262.107945c0.830206-206.365532 2.609219-261.752143 5.930044-260.447533 2.609219 0.948807 14.469307 4.506833 26.447996 7.946259l21.348159 6.285846 0.830206 108.164003 0.830206 108.045402 17.078527-21.110957c12.808895-15.773917 23.838777-24.668983 42.696316-34.394255 24.787584-12.571693 27.278202-13.046097 65.704888-13.046097 36.647672 0 40.917304 0.830206 64.044475 12.334492 53.726199 26.566597 80.174195 79.46259 79.343989 163.550614 0 89.306463-37.596479 158.687978-97.252721 181.340746-21.348158 7.946259-75.074357 13.046097-92.983091 8.657864z m67.3653-53.014594c45.186935-23.364373 72.583739-81.241603 68.314107-146.590688-2.609219-32.971045-3.439426-38.663887-13.639101-62.502664-10.199676-21.703961-27.278202-40.087098-46.965948-50.761176-22.178365-11.504285-64.874681-11.267084-88.713459 0.830206-25.61779 12.334492-49.456567 40.561501-58.826036 68.907111-9.36947 30.006023-10.199676 99.624739-1.660413 127.851749 9.36947 29.175817 40.917304 59.537642 72.583739 69.855919 15.418114 5.099838 52.895993 1.186009 69.144313-7.116053v-0.474404z m199.723883-307.413481h56.335418l1.660412 355.209636h-57.99583V404.310401z m153.58814 177.545517V404.310401h56.335418v27.989807c0 15.418114 0.830206 27.989808 2.609219 27.871207 1.660412 0 7.709057-6.523048 12.808895-14.469307 32.37804-46.491545 108.401205-63.214269 162.127404-35.698865 16.248321 8.302062 25.61779 16.248321 34.987259 29.413018 23.008571 35.224461 23.838777 42.814918 25.61779 188.456799l1.660413 131.884179h-56.335418l-1.660413-124.293723c-0.830206-87.883252-2.609219-128.800556-5.930044-139.356034-6.878851-21.703961-32.37804-44.712532-55.505212-50.286773-49.456567-11.741487-102.35256 22.059764-116.940468 74.481353-1.660412 7.234654-3.439426 63.807274-3.439425 126.309937v113.14524h-56.335418v-177.901321z m-90.492472-298.162612c0 18.976141-15.299514 34.394255-34.275654 34.394255h-0.711606a34.441696 34.441696 0 0 1-34.157053-34.394255c0-18.85754 15.299514-34.157054 34.157053-34.275655 18.976141-0.355803 34.631457 14.706509 34.98726 33.68265v0.593005z" fill="#ffffff" p-id="10976"></path></svg>