<?xml version="1.0" standalone="no"?><!DOCTYPE svg PUBLIC "-//W3C//DTD SVG 1.1//EN" "http://www.w3.org/Graphics/SVG/1.1/DTD/svg11.dtd"><svg t="1623052005442" class="icon" viewBox="0 0 1036 1024" version="1.1" xmlns="http://www.w3.org/2000/svg" p-id="5791" xmlns:xlink="http://www.w3.org/1999/xlink" width="202.34375" height="200"><defs><style type="text/css"></style></defs><path d="M964.064791 185.72549v-16.58653A164.119352 164.119352 0 0 0 806.056266 0H158.090367A164.119352 164.119352 0 0 0 0.081841 169.13896V868.610401a155.389599 155.389599 0 0 0 155.171356 155.171355h726.31543a155.389599 155.389599 0 0 0 155.171356-155.171355V317.108269a155.171355 155.171355 0 0 0-72.675192-131.382779zM1004.00341 868.610401a122.653026 122.653026 0 0 1-122.434783 122.434782H155.253197A122.653026 122.653026 0 0 1 32.818414 868.610401V169.13896A130.946292 130.946292 0 0 1 158.090367 32.736573h647.747655a130.946292 130.946292 0 0 1 125.490196 136.402387 154.29838 154.29838 0 0 0-49.759591-8.293265H412.999147a16.368286 16.368286 0 0 0 0 32.736573h468.56948A122.653026 122.653026 0 0 1 1004.00341 316.01705z" fill="#ffffff" p-id="5792"></path><path d="M343.815857 462.022165m16.368286 0l316.453538 0q16.368286 0 16.368287 16.368287l0 0q0 16.368286-16.368287 16.368286l-316.453538 0q-16.368286 0-16.368286-16.368286l0 0q0-16.368286 16.368286-16.368287Z" fill="#ffffff" p-id="5793"></path><path d="M343.815857 611.300938m16.368286 0l316.453538 0q16.368286 0 16.368287 16.368286l0 0q0 16.368286-16.368287 16.368287l-316.453538 0q-16.368286 0-16.368286-16.368287l0 0q0-16.368286 16.368286-16.368286Z" fill="#ffffff" p-id="5794"></path><path d="M502.042626 854.86104m0-13.967604l0-364.903666q0-13.967604 13.967604-13.967605l4.801364 0q13.967604 0 13.967605 13.967605l0 364.903666q0 13.967604-13.967605 13.967604l-4.801364 0q-13.967604 0-13.967604-13.967604Z" fill="#ffffff" p-id="5795"></path><path d="M495.306506 478.51991m11.574126-11.574126l131.173432-131.173432q11.574126-11.574126 23.148253 0l0 0q11.574126 11.574126 0 23.148252l-131.173432 131.173432q-11.574126 11.574126-23.148253 0l0 0q-11.574126-11.574126 0-23.148252Z" fill="#ffffff" p-id="5796"></path><path d="M518.471141 501.621426m-11.574126-11.574127l-131.173432-131.173432q-11.574126-11.574126 0-23.148252l0 0q11.574126-11.574126 23.148253 0l131.173431 131.173432q11.574126 11.574126 0 23.148252l0 0q-11.574126 11.574126-23.148252 0Z" fill="#ffffff" p-id="5797"></path></svg>