<?xml version="1.0" standalone="no"?><!DOCTYPE svg PUBLIC "-//W3C//DTD SVG 1.1//EN" "http://www.w3.org/Graphics/SVG/1.1/DTD/svg11.dtd"><svg t="1623052030645" class="icon" viewBox="0 0 1024 1024" version="1.1" xmlns="http://www.w3.org/2000/svg" p-id="6837" xmlns:xlink="http://www.w3.org/1999/xlink" width="200" height="200"><defs><style type="text/css"></style></defs><path d="M495.701333 644.551111c-41.244444-11.946667-67.328-23.893333-67.328-53.703111 0-31.829333 28.216889-53.703111 67.328-55.694222h2.190223v109.368889h-2.190223z m43.463111 53.674667h2.161778c30.435556 9.927111 63.004444 23.836444 63.004445 57.656889 0 11.918222-4.352 49.692444-63.004445 59.648h-2.161778v-117.304889z m-8.704 200.817778h8.704v-47.729778h2.161778c99.925333-9.955556 106.439111-77.539556 106.439111-97.422222 0-63.630222-56.462222-83.512889-108.600889-97.450667h-2.190222v-117.304889h2.190222c28.245333 5.973333 52.138667 17.92 71.68 35.783111l26.055112-27.818667a167.224889 167.224889 0 0 0-97.735112-43.747555h-2.190222v-47.729778h-41.244444v45.738667h-2.190222c-67.356444 3.982222-110.791111 41.756444-110.791112 93.44 0 59.676444 49.948444 77.568 112.952889 93.468444h2.190223v129.251556h-2.190223c-47.786667-5.973333-78.222222-27.847111-97.735111-47.729778l-26.083555 29.838222c30.435556 31.800889 73.870222 49.692444 121.656889 51.683556h2.161777v45.738666h34.759111v1.991112z" p-id="6838" fill="#ffffff"></path><path d="M141.596444 662.129778c45.624889-111.36 121.656889-210.773333 223.772445-290.304 6.513778-3.982222 13.027556-11.946667 17.351111-19.911111 0 0 0-1.962667 2.190222-1.962667 8.704-17.92 15.217778-37.774222 13.056-57.656889v-1.991111h2.161778c73.870222-9.955556 143.36-11.946667 204.202667-1.991111h2.161777v5.973333c2.190222 29.809778 15.217778 41.756444 30.435556 55.665778l10.837333 9.955556 2.161778 1.991111c4.352 3.982222 8.704 5.944889 10.865778 9.927111 32.597333 29.838222 175.985778 171.008 223.772444 290.304 41.272889 103.395556 45.624889 143.160889 43.434667 176.952889 0 49.720889-2.161778 143.160889-217.230222 145.152h-158.577778c-49.976889 0-117.304889 0-238.961778-1.991111-215.068444-1.991111-215.068444-95.431111-217.230222-143.160889 0-31.800889 2.161778-73.557333 45.596444-176.952889zM337.123556 178.915556c-6.542222-5.973333-13.027556-11.946667-17.351112-19.882667-4.380444-3.982222-8.732444-7.964444-13.084444-13.909333-12.999111-13.937778-23.893333-37.774222-30.378667-77.539556v-1.991111h17.351111c13.056 0 34.787556 1.991111 54.328889 5.973333 26.055111 3.982222 56.490667 7.936 84.707556 7.936h2.190222c32.568889 0 58.652444-9.955556 82.545778-19.882666 21.731556-7.964444 39.111111-15.928889 60.814222-13.937778 26.083556 1.991111 47.786667 15.928889 69.518222 29.866666 15.217778 9.927111 28.245333 19.854222 45.624889 25.827556 30.435556 7.964444 69.518222-1.991111 80.384-5.973333l4.352-1.991111-2.190222 5.973333c-6.513778 15.928889-36.920889 39.765333-93.411556 81.521778-6.513778 5.973333-15.189333 9.955556-21.731555 15.928889-6.513778 3.982222-10.865778 7.936-13.027556 9.927111l-2.161777 1.991111c-8.675556 5.973333-23.893333 17.891556-32.597334 41.756444v1.991111h-2.161778c-63.004444-9.955556-139.036444-7.964444-217.230222 3.982223h-2.190222v-1.991112C378.396444 220.672 356.693333 198.826667 337.123556 178.915556zM56.888889 839.111111c0 49.720889 2.161778 180.935111 256.341333 182.926222 208.554667 1.991111 249.827556 1.991111 362.780445 1.991111h34.759111c252.017778-1.991111 254.179556-135.196444 256.341333-184.888888 0-35.84-2.161778-81.550222-45.624889-188.928-52.138667-125.269333-191.146667-264.448-234.609778-304.213334-4.352-3.982222-8.675556-5.973333-13.027555-9.955555l-8.704-7.936 2.190222-3.982223c10.865778 7.964444 21.703111 11.946667 34.759111 11.946667 19.541333 0 39.082667-9.955556 47.786667-27.847111v-1.991111h2.161778c78.222222 13.937778 121.656889 37.774222 130.332444 67.612444 2.190222 9.955556 10.865778 15.900444 21.731556 15.900445h4.352c10.865778-1.991111 19.541333-13.937778 15.217777-23.864889-10.865778-41.756444-52.138667-71.566222-126.008888-89.457778h-4.352l2.190222-1.991111c26.055111-21.902222 43.434667-45.738667 45.624889-61.639111 2.161778-9.955556-6.542222-19.911111-17.379556-21.902222a21.390222 21.390222 0 0 0-23.893333 15.928889c-2.190222 11.946667-32.597333 41.756444-52.167111 53.674666l-2.161778-1.991111-2.161778-1.991111c-10.865778-13.909333-26.083556-21.845333-43.463111-21.845333-15.217778 0-30.407111 5.973333-39.111111 17.891555l-4.323556-1.991111c6.513778-9.955556 13.027556-15.928889 15.189334-15.928889l8.704-7.964444 2.161777-1.962667c8.704-5.973333 17.379556-11.946667 26.083556-19.882667 49.948444-35.783111 93.411556-67.612444 104.277333-95.459555 4.323556-9.927111 6.513778-15.900444 6.513778-19.854222 4.352-9.955556 6.513778-23.893333-6.542222-29.838223-4.323556-3.982222-8.675556-7.964444-19.541333-7.964444-8.675556 0-15.189333 1.991111-26.055112 5.973333-17.379556 5.973333-41.272889 11.946667-58.652444 5.973334-13.056-5.973333-26.083556-13.937778-39.111111-21.873778C645.603556 25.827556 617.358222 7.964444 580.437333 5.973333c-30.435556-1.991111-54.328889 7.964444-78.222222 15.900445-21.731556 7.964444-41.244444 15.928889-69.518222 15.928889-26.055111 0-56.462222-3.982222-80.355556-7.964445-23.893333-1.991111-43.463111-5.973333-60.842666-5.973333-6.513778 0-13.027556 0-15.189334 1.991111-4.352-1.991111-8.704-5.973333-13.056-11.946667C258.929778 7.964444 254.577778 0 241.550222 0c-4.352 0-10.865778 3.982222-15.217778 7.964444-6.542222 7.964444-6.542222 7.964444 6.542223 47.701334l2.161777 5.973333c0 1.991111 0 3.982222 2.161778 5.973333v1.991112c8.675556 41.728 21.703111 71.566222 41.244445 91.448888 4.380444 3.982222 8.704 9.955556 13.084444 13.937778 19.512889 21.845333 47.786667 53.674667 60.814222 85.475556v1.991111h-2.190222c-2.161778 0-4.323556 0-8.675555 1.991111-4.352 0-8.704 1.991111-10.865778 1.991111a18.375111 18.375111 0 0 0-15.217778 21.873778c2.190222 9.955556 13.056 15.928889 23.893333 13.937778 4.352 0 6.542222-1.991111 10.865778-1.991111 2.190222 0 4.352 0 6.542222-1.991112h2.161778v1.991112c0 11.918222-2.190222 21.845333-8.704 31.800888-4.323556 3.982222-6.513778 7.964444-10.865778 11.946667-106.439111 83.484444-186.823111 188.871111-234.609777 306.176C59.050667 759.552 56.888889 803.299556 56.888889 839.111111z" p-id="6839" fill="#ffffff"></path></svg>