<?xml version="1.0" standalone="no"?><!DOCTYPE svg PUBLIC "-//W3C//DTD SVG 1.1//EN" "http://www.w3.org/Graphics/SVG/1.1/DTD/svg11.dtd"><svg t="1653746018369" class="icon" viewBox="0 0 1024 1024" version="1.1" xmlns="http://www.w3.org/2000/svg" p-id="18279" xmlns:xlink="http://www.w3.org/1999/xlink" width="128" height="128"><defs><style type="text/css"></style></defs><path d="M116.61312 721.95072l3.40992-17.59232 5.38624-0.27648c17.77664-0.95232 28.80512-3.1744 33.06496-6.66624 4.23936-3.50208 15.45216-19.43552 33.60768-47.81056l219.3408-354.64192 20.72576 0 67.19488 349.5424c4.9152 25.72288 9.8816 41.89184 14.88896 48.50688 5.0176 6.61504 14.8992 10.31168 29.65504 11.06944l7.07584 0.27648-3.67616 17.59232L389.81632 721.95072l3.69664-17.59232 8.77568 0c27.4432 0 41.14432-4.53632 41.14432-13.6192 0-9.64608-1.59744-23.18336-4.8128-40.59136l-10.8544-57.57952L252.84608 592.56832l-35.52256 56.46336c-14.56128 22.8864-21.84192 37.65248-21.84192 44.25728 0 7.38304 11.64288 11.06944 34.89792 11.06944l7.08608 0-3.67616 17.59232L116.61312 721.95072zM264.13056 567.88992l158.43328 0-36.56704-197.46816L264.13056 567.88992zM790.4256 721.95072l25.89696-129.92512c-23.51104 41.50272-49.7152 74.7008-78.62272 99.62496-28.8768 24.92416-55.78752 37.376-80.72192 37.376-20.21376 0-35.35872-5.95968-45.45536-17.87904-10.10688-11.9296-15.14496-29.72672-15.14496-53.39136 0-61.52192 21.6064-118.74304 64.84992-171.66336 43.25376-52.91008 89.99936-79.37024 140.21632-79.37024 5.29408 0 12.0832 0.60416 20.38784 1.78176 8.32512 1.1776 18.2272 2.95936 29.75744 5.31456l55.78752 0-46.19264 234.5984c-3.20512 15.53408-4.82304 29.05088-4.82304 40.6016 0 6.05184 1.80224 9.74848 5.39648 11.06944 3.584 1.3312 15.40096 2.65216 35.46112 3.98336l5.09952 0.27648-3.39968 17.59232L790.4256 721.94048zM824.76032 549.75488l19.63008-98.4576c-10.92608-5.77536-22.12864-10.05568-33.61792-12.84096-11.49952-2.78528-23.35744-4.18816-35.60448-4.18816-28.2624 0-51.12832 12.76928-68.63872 38.30784-13.93664 20.41856-25.89696 47.65696-35.8912 81.70496-9.99424 34.048-14.96064 64.68608-14.96064 91.93472 0 13.6192 2.2528 23.82848 6.78912 30.63808 4.51584 6.8096 11.30496 10.20928 20.3776 10.20928C718.90944 687.0528 766.208 641.28 824.76032 549.75488z" p-id="18280" fill="#dbdbdb"></path></svg>