<?xml version="1.0" standalone="no"?><!DOCTYPE svg PUBLIC "-//W3C//DTD SVG 1.1//EN" "http://www.w3.org/Graphics/SVG/1.1/DTD/svg11.dtd"><svg t="1653746509284" class="icon" viewBox="0 0 1029 1024" version="1.1" xmlns="http://www.w3.org/2000/svg" p-id="7830" xmlns:xlink="http://www.w3.org/1999/xlink" width="128.625" height="128"><defs><style type="text/css"></style></defs><path d="M692.613848 702.153984m31.367966 0l85.09801 0q31.367966 0 31.367966 31.367966l0 85.09801q0 31.367966-31.367966 31.367966l-85.09801 0q-31.367966 0-31.367966-31.367966l0-85.09801q0-31.367966 31.367966-31.367966Z" p-id="7831" fill="#dbdbdb"></path><path d="M693.758664 876.166058m31.367966 0l85.09801 0q31.367966 0 31.367966 31.367966l0 85.09801q0 31.367966-31.367966 31.367966l-85.09801 0q-31.367966 0-31.367966-31.367966l0-85.09801q0-31.367966 31.367966-31.367966Z" p-id="7832" fill="#dbdbdb"></path><path d="M921.577104 722.608035l68.154729 21.522546-21.522546 68.154729-68.154729-21.522546 21.522546-68.154729m-4.426623-39.915928a31.367966 31.367966 0 0 0-29.917866 21.904151l-25.643884 81.129314a31.444287 31.444287 0 0 0 20.454051 39.38168l81.205634 25.643885a30.528434 30.528434 0 0 0 9.387494 1.4501 31.367966 31.367966 0 0 0 29.917865-21.904151l25.185958-81.129314a31.367966 31.367966 0 0 0-20.454051-39.305359l-81.205634-25.643884a32.589103 32.589103 0 0 0-9.387494-1.450101z" p-id="7833" fill="#dbdbdb"></path><path d="M870.67094 876.166058m31.367966 0l85.09801 0q31.367966 0 31.367966 31.367966l0 85.09801q0 31.367966-31.367966 31.367966l-85.09801 0q-31.367966 0-31.367966-31.367966l0-85.09801q0-31.367966 31.367966-31.367966Z" p-id="7834" fill="#dbdbdb"></path><path d="M795.647313 256.438846a33.123351 33.123351 0 1 1 33.199672-33.123351 33.04703 33.04703 0 0 1-33.199672 33.123351m0-129.745845a96.775136 96.775136 0 1 0 96.775136 96.851458 96.851457 96.851457 0 0 0-96.698815-97.0041" p-id="7835" fill="#dbdbdb"></path><path d="M879.676828 0H138.064843A138.141164 138.141164 0 0 0 0 138.064843v741.611985a137.988522 137.988522 0 0 0 138.064843 137.988522h513.41194a31.825893 31.825893 0 0 0 0-63.575464H138.064843a74.413058 74.413058 0 0 1-74.413058-74.413058v-145.010062a30.528434 30.528434 0 0 0 13.585153-7.632108l205.456362-200.648133 235.145263 293.149288a31.7801 31.7801 0 1 0 51.440411-37.321011l-1.831706-2.365954-49.150778-61.056868 150.276216-125.92979 20.454051 24.422747a41.060744 41.060744 0 0 0 80.060818 0l0.763211-2.82388-73.039278-86.624432a33.123351 33.123351 0 0 0-4.502944-3.587091 45.792651 45.792651 0 0 0-5.418797-4.273981h-0.68689a31.139003 31.139003 0 0 0-34.268167 4.19766L478.22792 669.030633l-167.906388-209.882984s-0.839532-0.534248-1.221137-0.915854-0.457927-0.992174-0.839532-1.373779a27.017664 27.017664 0 0 0-4.045017-2.747559 24.499068 24.499068 0 0 0-5.037192-3.434449 53.42476 53.42476 0 0 0-11.677126-3.052843 43.274055 43.274055 0 0 0-6.258329 0.534247 19.843482 19.843482 0 0 0-11.524484 4.045018 23.506894 23.506894 0 0 0-4.121339 2.13699s-0.534248 0.839532-0.915853 1.144816-0.992174 0.457927-1.373779 0.839532L63.651785 651.476783V137.988522a74.413058 74.413058 0 0 1 74.413058-74.413058h741.535664a74.642021 74.642021 0 0 1 74.413058 74.413058v276.129686a31.825893 31.825893 0 0 0 63.651785 0V137.988522A138.141164 138.141164 0 0 0 879.676828 0z" p-id="7836" fill="#dbdbdb"></path></svg>