<?xml version="1.0" standalone="no"?><!DOCTYPE svg PUBLIC "-//W3C//DTD SVG 1.1//EN" "http://www.w3.org/Graphics/SVG/1.1/DTD/svg11.dtd"><svg t="1610098085697" class="icon" viewBox="0 0 1280 1024" version="1.1" xmlns="http://www.w3.org/2000/svg" p-id="7540" xmlns:xlink="http://www.w3.org/1999/xlink" width="250" height="200"><defs><style type="text/css"></style></defs><path d="M36.506 300.34v47h0.87c9.37 230.76 154.982 427.316 360.858 515.022v2.099h24.064v47.001c0 51.917 43.212 94.055 96.512 94.055h241.152c53.248 0 96.46-42.138 96.46-94.055v-47.001h19.456c208.384-86.733 356.045-284.621 365.466-517.12h0.87v-47.002H36.454z m938.393-23.553l206.695-201.42a11.52 11.52 0 0 0 0-16.64l-17.05-16.64a12.288 12.288 0 0 0-17.05 0L906.752 276.837h68.198zM937.574 29.44a11.571 11.571 0 0 0-4.403-16.077l-20.89-11.725a12.237 12.237 0 0 0-16.486 4.301l-160.46 270.95h55.705l146.534-247.5z" p-id="7541" fill="#dbdbdb"></path></svg>