<?xml version="1.0" standalone="no"?><!DOCTYPE svg PUBLIC "-//W3C//DTD SVG 1.1//EN" "http://www.w3.org/Graphics/SVG/1.1/DTD/svg11.dtd"><svg t="1653745682969" class="icon" viewBox="0 0 1024 1024" version="1.1" xmlns="http://www.w3.org/2000/svg" p-id="8693" xmlns:xlink="http://www.w3.org/1999/xlink" width="128" height="128"><defs><style type="text/css"></style></defs><path d="M420.912 508.736c-35.328-19.504-84.496-39.776-138.368-39.776-6.128 0-12.224 0.224-18.384 0.784-54.032 4.832-103.248 19.712-137.808 32.832-10.208 3.968-20.752 8.288-31.536 13.024L0.032 869.536c71.616-31.12 129.488-43.536 178.128-43.536 80.16 0 135.744 33.344 188.208 70.976 19.472-71.056 85.568-314.16 98.128-360.432-14.208-9.52-28.496-19.04-43.584-27.808z m-120.672-125.056c76.832 0.864 131.28 33.904 181.952 70.112 19.408-70.832 77.024-283.568 96.48-355.344v-0.272s-67.904-43.792-115.152-56.768a308.336 308.336 0 0 0-76.256-9.36h-1.104c-48.016 0.992-105.568 13.504-176.32 44.608L116.48 429.76c72.688-31.92 131.648-46.08 181.184-46.08h2.576z m540.736-166.736c-103.808 0-172.272-47.584-202.528-72.944l-95.76 356.896c0.272 0.304 0.688 0.56 1.008 0.768 52.656 37.936 121.152 68.592 203.712 68.592 54.592 0 115.264-13.376 181.568-47.04v-0.48c0.16 0 0.336-0.128 0.592-0.224l94.416-350.384c-69.728 32.784-130.8 44.816-183.008 44.816z m-319.888 364.32l-94.464 353.36c-0.144-0.08 110.464 73.344 193.424 73.344 52.496 0 115.28-13.84 193.824-48.752l91.056-342.88c-69.088 26.656-128.624 36.656-178.96 36.656-109.504 0-176.096-47.008-204.88-71.728z" fill="#dbdbdb" p-id="8694"></path></svg>