<?xml version="1.0" standalone="no"?><!DOCTYPE svg PUBLIC "-//W3C//DTD SVG 1.1//EN" "http://www.w3.org/Graphics/SVG/1.1/DTD/svg11.dtd"><svg t="1623052226808" class="icon" viewBox="0 0 1290 1024" version="1.1" xmlns="http://www.w3.org/2000/svg" p-id="10138" xmlns:xlink="http://www.w3.org/1999/xlink" width="251.953125" height="200"><defs><style type="text/css"></style></defs><path d="M779.655642 669.379693a31.507986 31.507986 0 0 1-22.36999-9.294996l-111.379948-111.379949-111.379949 111.379949a31.507986 31.507986 0 0 1-44.58298-44.58398l133.749939-133.591938a31.507986 31.507986 0 0 1 44.425979 0l133.749939 133.591938a31.507986 31.507986 0 0 1-22.21299 53.877976z" p-id="10139" fill="#ffffff"></path><path d="M960.981559 1023.99753H787.689638a31.507986 31.507986 0 0 1 0-63.015971h166.359924a29.301987 29.301987 0 0 1 5.356998 0 283.56887 283.56887 0 0 0 54.979974-557.526744 31.507986 31.507986 0 0 1-23.629989-27.411988 346.583841 346.583841 0 0 0-689.701683 0 31.507986 31.507986 0 0 1-23.787989 27.411988 283.56887 283.56887 0 0 0 55.137974 557.526744 31.507986 31.507986 0 0 1 5.513998 0h307.986859a31.507986 31.507986 0 0 1 0 63.015971H330.829848a33.397985 33.397985 0 0 1-8.979996-1.259999 346.583841 346.583841 0 0 1-80.816963-675.050691 409.599812 409.599812 0 0 1 809.745629 0 346.583841 346.583841 0 0 1-81.131963 675.207691 31.507986 31.507986 0 0 1-8.664996 1.102999z" p-id="10140" fill="#ffffff"></path><path d="M645.905704 1008.243537a31.507986 31.507986 0 0 1-31.506986-31.507985V551.382747a31.507986 31.507986 0 0 1 63.014971 0v425.352805a31.507986 31.507986 0 0 1-31.507985 31.507985z" p-id="10141" fill="#ffffff"></path></svg>