<?xml version="1.0" standalone="no"?><!DOCTYPE svg PUBLIC "-//W3C//DTD SVG 1.1//EN" "http://www.w3.org/Graphics/SVG/1.1/DTD/svg11.dtd"><svg t="1623052575553" class="icon" viewBox="0 0 1024 1024" version="1.1" xmlns="http://www.w3.org/2000/svg" p-id="11826" xmlns:xlink="http://www.w3.org/1999/xlink" width="200" height="200"><defs><style type="text/css"></style></defs><path d="M800 364.8h-32V256c0-134.4-115.2-243.2-249.6-243.2H512c-140.8 0-249.6 108.8-256 243.2v108.8h-32c-76.8 0-147.2 64-147.2 147.2v352c0 76.8 64 147.2 147.2 147.2h576c76.8 0 147.2-64 147.2-147.2V512c0-76.8-64-147.2-147.2-147.2zM320 256c6.4-102.4 89.6-185.6 192-185.6h6.4C620.8 76.8 697.6 160 704 256v108.8H320V256z m563.2 608c0 44.8-38.4 83.2-83.2 83.2H224c-44.8 0-83.2-38.4-83.2-83.2V512c0-44.8 38.4-83.2 83.2-83.2h576c44.8 0 83.2 38.4 83.2 83.2v352z" fill="#ffffff" p-id="11827"></path><path d="M512 582.4c-19.2 0-32 12.8-32 32V768c0 19.2 12.8 32 32 32s32-12.8 32-32V614.4c0-19.2-12.8-32-32-32z" fill="#ffffff" p-id="11828"></path><path d="M832 403.2H384c-96 211.2-32 576-32 576l480 6.4 76.8-83.2V480L832 403.2zM582.4 768c0 19.2-12.8 32-32 32s-32-12.8-32-32V614.4c0-19.2 12.8-32 32-32s32 12.8 32 32V768z" fill="#ffffff" opacity=".2" p-id="11829"></path></svg>