<?xml version="1.0" standalone="no"?><!DOCTYPE svg PUBLIC "-//W3C//DTD SVG 1.1//EN" "http://www.w3.org/Graphics/SVG/1.1/DTD/svg11.dtd"><svg t="1653746314437" class="icon" viewBox="0 0 1024 1024" version="1.1" xmlns="http://www.w3.org/2000/svg" p-id="2717" xmlns:xlink="http://www.w3.org/1999/xlink" width="128" height="128"><defs><style type="text/css"></style></defs><path d="M1023.289496 187.997344c1.170543-5.852714 0.557158-11.950781-1.911716-17.440576-14.808133-96.413875-98.095572-170.556769-198.593568-170.556769L201.180007 0c-110.93065 0-201.174896 90.244246-201.174896 201.174896l0 621.599094c0 110.93065 90.244246 201.174896 201.174896 201.174896l435.891719 0c15.871333 0 28.742192-12.870859 28.742192-28.742192s-12.870859-28.731969-28.742192-28.731969L201.180007 966.474724c-79.233988 0-143.695624-64.471859-143.695624-143.700735l0-32.524732c108.604899-100.155523 241.147141-204.686524 271.974842-205.509482 7.616195 0 15.733321-0.214685 24.560952-0.454927 64.44119-1.809485 161.8007-4.334586 377.129451 71.985823 14.516775 5.126875 30.607904-2.116178 36.322606-16.484718 1.006973-2.530212 88.450095-221.452376 199.017825-375.340412l0 558.328446c0 79.228876-64.466748 143.700735-143.700735 143.700735-15.866221 0-28.73708 12.860636-28.73708 28.731969s12.870859 28.742192 28.73708 28.742192c110.93065 0 201.174896-90.244246 201.174896-201.174896L1023.964219 201.174896C1023.964219 196.727855 1023.591077 192.377935 1023.289496 187.997344zM724.519959 593.127813c-207.906794-70.707938-310.03026-67.983487-372.043468-66.296679-8.275584 0.214685-15.876444 0.424258-23.017266 0.424258-55.163744 0-190.67068 112.883258-271.974842 185.364901L57.484383 201.174896c0-79.233988 64.456524-143.695624 143.695624-143.695624l621.604205 0c70.109888 0 128.565464 50.507131 141.114296 117.023606C850.703446 306.176158 755.490783 519.58297 724.519959 593.127813z" p-id="2718" fill="#cdcdcd"></path><path d="M273.840554 132.276442c-66.475583 0-120.545457 54.074986-120.545457 120.550569 0 66.480694 54.074986 120.560792 120.545457 120.560792s120.55568-54.080097 120.55568-120.560792C394.396234 186.351428 340.311025 132.276442 273.840554 132.276442zM273.840554 315.908531c-34.784032 0-63.071297-28.297488-63.071297-63.08152 0-34.784032 28.287265-63.071297 63.071297-63.071297 34.778921 0 63.076409 28.287265 63.076409 63.071297C336.911851 287.616155 308.619475 315.908531 273.840554 315.908531z" p-id="2719" fill="#cdcdcd"></path></svg>