<?xml version="1.0" standalone="no"?><!DOCTYPE svg PUBLIC "-//W3C//DTD SVG 1.1//EN" "http://www.w3.org/Graphics/SVG/1.1/DTD/svg11.dtd"><svg t="1653745870616" class="icon" viewBox="0 0 1024 1024" version="1.1" xmlns="http://www.w3.org/2000/svg" p-id="15517" xmlns:xlink="http://www.w3.org/1999/xlink" width="128" height="128"><defs><style type="text/css"></style></defs><path d="M416 464a48 48 0 0 0-48 48v256a48 48 0 1 0 96 0V512a48 48 0 0 0-48-48z m-192 128a48 48 0 0 0-48 48v128a48 48 0 1 0 96 0v-128a48 48 0 0 0-48-48z m576-384a48 48 0 0 0-48 48v512a48 48 0 1 0 96 0V256a48 48 0 0 0-48-48z m-192 128a48 48 0 0 0-48 48v384a48 48 0 1 0 96 0V384a48 48 0 0 0-48-48z" fill="#dbdbdb" p-id="15518"></path></svg>