<?xml version="1.0" standalone="no"?><!DOCTYPE svg PUBLIC "-//W3C//DTD SVG 1.1//EN" "http://www.w3.org/Graphics/SVG/1.1/DTD/svg11.dtd"><svg t="1653745878971" class="icon" viewBox="0 0 1024 1024" version="1.1" xmlns="http://www.w3.org/2000/svg" p-id="15704" xmlns:xlink="http://www.w3.org/1999/xlink" width="128" height="128"><defs><style type="text/css"></style></defs><path d="M59.7 278.5c-13.7-13.7-35.8-13.7-49.5 0-13.7 13.7-13.7 35.8 0 49.5l159.4 159.4c13.6 13.6 13.6 35.6 0 49.2L10.3 696c-13.7 13.7-13.7 35.8 0 49.5 6.8 6.8 15.8 10.3 24.7 10.3 9 0 17.9-3.4 24.7-10.3l208.9-208.9c13.6-13.6 13.6-35.6 0-49.2L59.7 278.5zM432.3 278.5c-13.7-13.7-35.8-13.7-49.5 0-13.7 13.7-13.7 35.8 0 49.5l159.4 159.4c13.6 13.6 13.6 35.6 0 49.2L382.8 696c-13.7 13.7-13.7 35.8 0 49.5 6.8 6.8 15.8 10.3 24.7 10.3 9 0 17.9-3.4 24.7-10.3l208.9-208.9c13.6-13.6 13.6-35.6 0-49.2L432.3 278.5zM1013.8 487.4L804.9 278.5c-13.7-13.7-35.8-13.7-49.5 0-13.7 13.7-13.7 35.8 0 49.5l159.4 159.4c13.6 13.6 13.6 35.6 0 49.2L755.4 696c-13.7 13.7-13.7 35.8 0 49.5 6.8 6.8 15.8 10.3 24.7 10.3 9 0 17.9-3.4 24.7-10.3l208.9-208.9c13.7-13.6 13.7-35.6 0.1-49.2z" p-id="15705" fill="#dbdbdb"></path></svg>