<?xml version="1.0" standalone="no"?><!DOCTYPE svg PUBLIC "-//W3C//DTD SVG 1.1//EN" "http://www.w3.org/Graphics/SVG/1.1/DTD/svg11.dtd"><svg t="1653745804016" class="icon" viewBox="0 0 1024 1024" version="1.1" xmlns="http://www.w3.org/2000/svg" p-id="12315" xmlns:xlink="http://www.w3.org/1999/xlink" width="128" height="128"><defs><style type="text/css"></style></defs><path d="M672 64a32 32 0 0 1 32 32v32h160a96 96 0 0 1 95.84 90.368L960 224v640a96 96 0 0 1-96 96H160a96 96 0 0 1-96-96V224a96 96 0 0 1 96-96h160V96a32 32 0 0 1 64 0v32h256V96a32 32 0 0 1 32-32z m224 320H128v480a32 32 0 0 0 32 32h704a32 32 0 0 0 32-32V384z m-198.848 89.504c9.92 9.92 9.92 26.048 0 36L477.76 728.96a24.672 24.672 0 0 1-35.488 0.608L316.608 603.84a24.672 24.672 0 0 1 34.912-34.912l107.072 107.072 202.56-202.528a25.44 25.44 0 0 1 36 0zM320 192H160a32 32 0 0 0-32 32v96h768V224a32 32 0 0 0-32-32h-160v32a32 32 0 0 1-64 0V192h-256v32a32 32 0 0 1-64 0V192z" p-id="12316" fill="#dbdbdb"></path></svg>