<?xml version="1.0" standalone="no"?><!DOCTYPE svg PUBLIC "-//W3C//DTD SVG 1.1//EN" "http://www.w3.org/Graphics/SVG/1.1/DTD/svg11.dtd"><svg t="1623051973868" class="icon" viewBox="0 0 1024 1024" version="1.1" xmlns="http://www.w3.org/2000/svg" p-id="4950" xmlns:xlink="http://www.w3.org/1999/xlink" width="200" height="200"><defs><style type="text/css"></style></defs><path d="M895.75619 528.579048l96.060953-334.506667c1.462857-5.851429 0.487619-12.190476-3.413333-17.066667s-9.264762-7.801905-15.60381-7.801904H223.817143l-19.992381-98.499048c-1.950476-9.264762-9.752381-15.60381-19.017143-15.60381H51.2c-10.727619 0-19.504762 8.777143-19.504762 19.504762s8.777143 19.504762 19.504762 19.504762h117.51619L292.08381 702.171429c1.950476 9.264762 9.752381 15.60381 19.017142 15.603809h565.638096c10.727619 0 19.504762-8.777143 19.504762-19.504762s-8.777143-19.504762-19.504762-19.504762H327.192381l-27.794286-136.533333h577.340953c8.777143 0.487619 16.579048-5.36381 19.017142-13.653333z m-604.16-24.868572L231.619048 208.213333h715.337142l-84.845714 295.497143h-570.514286zM386.681905 768.487619c-55.100952 0-99.961905 44.860952-99.961905 99.961905s44.860952 99.961905 99.961905 99.961905 99.961905-44.860952 99.961905-99.961905-44.860952-99.961905-99.961905-99.961905z m0 161.401905c-33.645714 0-60.952381-27.306667-60.952381-60.952381s27.306667-60.952381 60.952381-60.952381 60.952381 27.306667 60.952381 60.952381-27.306667 60.952381-60.952381 60.952381zM785.554286 768.487619c-55.100952 0-99.961905 44.860952-99.961905 99.961905s44.860952 99.961905 99.961905 99.961905 99.961905-44.860952 99.961904-99.961905-44.373333-99.961905-99.961904-99.961905z m0 161.401905c-33.645714 0-60.952381-27.306667-60.952381-60.952381s27.306667-60.952381 60.952381-60.952381 60.952381 27.306667 60.952381 60.952381-27.306667 60.952381-60.952381 60.952381z" p-id="4951" fill="#ffffff"></path></svg>