<?xml version="1.0" standalone="no"?><!DOCTYPE svg PUBLIC "-//W3C//DTD SVG 1.1//EN" "http://www.w3.org/Graphics/SVG/1.1/DTD/svg11.dtd"><svg t="1610098066773" class="icon" viewBox="0 0 1024 1024" version="1.1" xmlns="http://www.w3.org/2000/svg" p-id="7092" xmlns:xlink="http://www.w3.org/1999/xlink" width="200" height="200"><defs><style type="text/css"></style></defs><path d="M927.892105 480.285694c-0.005117 0-0.005117 0-0.010233 0-17.652032 0-31.968086 14.305821-31.973202 31.961946-0.025583 66.875107-17.822924 133.022643-51.467185 191.295837-51.232848 88.73702-133.953851 152.21475-232.927003 178.733731-98.978269 26.508747-202.354708 12.905938-291.086611-38.32691-88.73702-51.232848-152.209634-133.953851-178.728614-232.927003s-12.911054-202.348568 38.321794-291.085588c63.815421-110.531396 178.041976-181.90291 305.542858-190.916191 17.615193-1.248434 30.885428-16.537651 29.641087-34.147728-1.249457-17.615193-16.569374-30.848589-34.147728-29.641087-148.722206 10.517541-281.963837 93.779873-356.416526 222.732827C64.87045 391.496485 48.992831 512.102331 79.930447 627.577319c30.942733 115.469871 104.999402 211.981972 208.526267 271.753287 68.962651 39.814798 145.495722 60.151985 223.050052 60.151985 38.868239 0 78.006632-5.110391 116.562762-15.439644 115.469871-30.942733 211.980949-104.994286 271.753287-208.526267 39.242769-67.973114 60.001559-145.168264 60.032258-223.24755C959.860191 494.611981 945.549254 480.290811 927.892105 480.285694z" p-id="7093" fill="#dbdbdb"></path><path d="M614.243639 149.879566l205.200522 0L593.302701 345.894891c-10.085706 8.742105-13.681604 22.829961-9.013281 35.33988 4.663206 12.504802 16.60519 20.794605 29.954219 20.794605l290.904463 0c17.657148 0 31.973202-14.316054 31.973202-31.973202 0-17.657148-14.316054-31.973202-31.973202-31.973202L699.946556 338.082972l226.14146-196.015326c10.084683-8.742105 13.681604-22.829961 9.013281-35.33988-4.663206-12.504802-16.60519-20.794605-29.954219-20.794605L614.243639 85.933161c-17.657148 0-31.973202 14.316054-31.973202 31.973202S596.58649 149.879566 614.243639 149.879566z" p-id="7094" fill="#dbdbdb"></path><path d="M355.527273 498.609015l0 31.165814c0 17.657148 14.316054 31.973202 31.973202 31.973202s31.973202-14.316054 31.973202-31.973202L419.473677 498.609015c0-17.657148-14.316054-31.973202-31.973202-31.973202S355.527273 480.951867 355.527273 498.609015z" p-id="7095" fill="#dbdbdb"></path><path d="M604.872201 498.609015l0 31.165814c0 17.657148 14.316054 31.973202 31.973202 31.973202 17.657148 0 31.973202-14.316054 31.973202-31.973202L668.818605 498.609015c0-17.657148-14.316054-31.973202-31.973202-31.973202C619.188254 466.635813 604.872201 480.951867 604.872201 498.609015z" p-id="7096" fill="#dbdbdb"></path><path d="M479.33402 613.901855c-9.392928-14.763239-28.939099-19.234063-43.837414-9.986445-15.002692 9.320273-19.608593 29.03222-10.288321 44.029796 11.276834 18.151405 42.219567 48.864918 86.660732 48.864918 44.212968 0 75.534324-30.479175 87.072101-48.490388 9.434883-14.732539 5.157463-34.127262-9.450233-43.754526-14.602579-9.617032-34.366715-5.542226-44.181245 8.93551-0.135076 0.192382-13.368472 19.364023-33.440623 19.364023C492.375034 632.864742 480.18234 615.166661 479.33402 613.901855z" p-id="7097" fill="#dbdbdb"></path></svg>