<?xml version="1.0" standalone="no"?><!DOCTYPE svg PUBLIC "-//W3C//DTD SVG 1.1//EN" "http://www.w3.org/Graphics/SVG/1.1/DTD/svg11.dtd"><svg t="1653745628033" class="icon" viewBox="0 0 1024 1024" version="1.1" xmlns="http://www.w3.org/2000/svg" p-id="7837" xmlns:xlink="http://www.w3.org/1999/xlink" width="128" height="128"><defs><style type="text/css"></style></defs><path d="M382.884571 750.208c15.872 0 27.428571-10.916571 27.428572-27.776v-47.616h1.334857c21.156571 46.628571 64.475429 75.721143 119.369143 75.721143 90.258286 0 149.449143-71.753143 149.449143-182.509714 0-110.774857-59.52-182.528-148.790857-182.528-53.906286 0-97.536 29.44-118.034286 75.392h-1.645714v-168.96c0-17.846857-11.264-29.44-27.794286-29.44s-27.776 11.593143-27.776 29.44v430.500571c0 17.188571 10.587429 27.776 26.459428 27.776z m498.614858 0.329143c65.133714 0 120.685714-35.712 139.52-86.308572 1.993143-5.613714 2.980571-10.898286 2.980571-15.542857 0-14.208-9.910857-24.137143-23.808-24.137143-12.562286 0-19.181714 4.973714-26.459429 19.510858-17.517714 37.705143-47.268571 58.203429-91.904 58.203428-64.475429 0-106.788571-51.254857-106.788571-133.906286 0-82.011429 42.313143-134.582857 106.788571-134.582857 42.642286 0 73.398857 20.169143 91.245715 58.861715 6.948571 13.897143 13.568 18.834286 25.782857 18.834285 14.226286 0 24.137143-9.252571 24.137143-23.789714 0-3.968-0.969143-8.923429-2.304-13.238857-16.530286-50.578286-73.069714-88.941714-140.196572-88.941714-98.523429 0-162.669714 72.411429-162.669714 183.186285 0 111.414857 64.804571 181.851429 163.657143 181.851429z m-763.465143-0.329143c50.267429 0 97.865143-27.428571 117.705143-69.76h1.005714v42.971429c0.658286 16.201143 11.574857 27.117714 27.099428 27.117714 15.872 0 26.788571-10.916571 26.788572-28.434286V503.222857c0-71.424-52.242286-117.394286-135.570286-117.394286-61.805714 0-113.078857 27.117714-132.242286 69.12-3.657143 8.265143-5.961143 16.201143-5.961142 23.131429 0 14.555429 10.587429 23.808 25.124571 23.808 10.24 0 17.865143-3.638857 23.149714-12.891429 17.865143-38.034286 45.970286-55.552 88.612572-55.552 50.925714 0 81.005714 28.434286 81.005714 74.404572v27.776l-105.472 5.942857C46.281143 547.181714 0 584.539429 0 645.394286c0 63.140571 48.274286 104.813714 118.034286 104.813714z m400.420571-47.945143c-62.171429 0-106.477714-53.229714-106.477714-133.906286 0-81.005714 44.306286-134.235429 106.477714-134.235428 64.128 0 104.466286 51.894857 104.466286 133.906286 0 82.651429-40.338286 134.235429-104.466286 134.235428z m-387.2 1.974857c-44.288 0-74.057143-24.137143-74.057143-59.830857 0-34.724571 27.794286-57.545143 79.030857-61.184l98.523429-6.272v34.377143c0 52.242286-45.952 92.909714-103.497143 92.909714z" p-id="7838" fill="#dbdbdb"></path></svg>