<?xml version="1.0" standalone="no"?><!DOCTYPE svg PUBLIC "-//W3C//DTD SVG 1.1//EN" "http://www.w3.org/Graphics/SVG/1.1/DTD/svg11.dtd"><svg t="1653746284806" class="icon" viewBox="0 0 1024 1024" version="1.1" xmlns="http://www.w3.org/2000/svg" p-id="1838" xmlns:xlink="http://www.w3.org/1999/xlink" width="128" height="128"><defs><style type="text/css"></style></defs><path d="M896 170.666667a85.333333 85.333333 0 0 0-85.333333-85.333334H298.666667a85.333333 85.333333 0 0 0-85.333334 85.333334H149.333333a21.333333 21.333333 0 0 0-21.333333 21.333333v42.666667a21.333333 21.333333 0 0 0 21.333333 21.333333H213.333333v213.333333H149.333333a21.333333 21.333333 0 0 0-21.333333 21.333334v42.666666a21.333333 21.333333 0 0 0 21.333333 21.333334H213.333333v213.333333H149.333333a21.333333 21.333333 0 0 0-21.333333 21.333333v42.666667a21.333333 21.333333 0 0 0 21.333333 21.333333H213.333333a85.333333 85.333333 0 0 0 85.333334 85.333334h512a85.333333 85.333333 0 0 0 85.333333-85.333334z m-290.133333 472.746666l-33.28 32a25.6 25.6 0 0 1-35.84 0l-33.28-32C465.066667 605.866667 384 533.333333 384 475.306667A92.586667 92.586667 0 0 1 477.866667 384a110.506667 110.506667 0 0 1 76.8 34.133333 110.506667 110.506667 0 0 1 76.8-34.133333 92.586667 92.586667 0 0 1 93.866666 91.306667c0 58.026667-81.066667 130.56-119.466666 168.106666z" p-id="1839" fill="#cdcdcd"></path></svg>